<!DOCTYPE svg PUBLIC "-//W3C//DTD SVG 1.1//EN" "http://www.w3.org/Graphics/SVG/1.1/DTD/svg11.dtd">
<!-- Uploaded to: SVG Repo, www.svgrepo.com, Transformed by: SVG Repo Mixer Tools -->
<svg width="800px" height="800px" viewBox="0 0 24 24" xmlns="http://www.w3.org/2000/svg" fill="#00ff04" stroke="#00ff04">
<g id="SVGRepo_bgCarrier" stroke-width="0"/>
<g id="SVGRepo_tracerCarrier" stroke-linecap="round" stroke-linejoin="round"/>
<g id="SVGRepo_iconCarrier"> <g> <path fill="none" d="M0 0h24v24H0z"/> <path d="M5.671 4.257L13.414 12 12 13.414 8.554 9.968a4 4 0 1 0 3.697-1.96l-1.805-1.805a6 6 0 1 1-3.337 2.32L5.68 7.094a8 8 0 1 0 3.196-2.461L7.374 3.132A9.957 9.957 0 0 1 12 2c5.523 0 10 4.477 10 10s-4.477 10-10 10S2 17.523 2 12a9.98 9.98 0 0 1 3.671-7.743z"/> </g> </g>
</svg>